<svg xmlns="http://www.w3.org/2000/svg" version="1.1" xmlns:xlink="http://www.w3.org/1999/xlink" xmlns:svgjs="http://svgjs.dev/svgjs" width="100%" height="100%" viewBox="0 0 1000 600"><rect width="1000" height="600" x="0" y="0" fill="#ffffff00"/><g><circle r="166.66666666666666" cx="359.0671030680338" cy="381.2893312630864" fill="#0b36a8" transform="matrix(0.6496866245448942,0,0,0.6496866245448942,0,52.281408178797136)"/><path d="M287.4570299197344 344.43720083734956L287.4570299197344 344.43720083734956Q287.5775602561573 348.866690700891 290.04843215282665 352.42233562536643Q292.5494366336018 355.9779805498419 296.61733548787447 359.1419018809429Q300.71536692625295 362.3359557961496 305.89817139243746 365.349214206722Q311.08097585862197 368.36247261729443 316.53497358175804 371.7071894530298Q321.9889713048941 375.05190628876517 327.2019083551843 378.9691422225093Q332.3847128213689 382.8863781562534 336.51287684385306 387.85825453369785Q340.6410408663372 392.8301309111423 343.172177931218 399.0977084051329Q345.7334475802046 405.33515331501775 345.94437566894464 413.2901555189289L345.94437566894464 413.2901555189289L345.94437566894464 414.13386787388913Q345.94437566894464 422.81205209633765 343.83509478154394 429.29055767906834Q341.69568131003757 435.73893067769325 338.20030155377356 440.4094812140804Q334.70492179750966 445.0498991663619 330.06450384522816 448.09329016104004Q325.3939533088409 451.1065485716125 320.2412814267621 452.9145036179559Q315.118742128789 454.69232608019365 309.87567249439303 455.4456406828367Q304.63260285999706 456.1989552854798 299.9620523236099 456.289353037797L299.9620523236099 456.289353037797L298.90741187990955 456.289353037797Q289.89776923229806 456.289353037797 283.1179378085102 454.48139799145355Q276.33810638472227 452.70357552921587 271.456627759595 449.66018453453773Q266.60528171857345 446.64692612396533 263.35096263515527 442.72969019022116Q260.12677613584276 438.8124542564771 258.22842333718216 434.62402506578144Q256.33007053852157 430.4355958750858 255.48635818356126 426.30743185260167Q254.6125132444953 422.17926783011745 254.6125132444953 418.59349032153625L254.6125132444953 418.59349032153625Q254.6125132444953 414.88718247653225 255.90821436104142 412.1149847388057Q257.1737828934818 409.3729195851848 259.22279861267106 407.62522970705277Q261.301946915966 405.87753982892076 264.01387948548114 405.0338274739605Q266.6956794708906 404.15998253489454 269.67880529735726 404.15998253489454L269.67880529735726 404.15998253489454Q272.42087045097816 404.15998253489454 275.3437311092334 405.0338274739605Q278.23645918338286 405.87753982892076 280.61693332773507 407.62522970705277Q283.027540056193 409.3729195851848 284.5643018455849 412.0547195705942Q286.10106363497687 414.7666521401094 286.191461387294 418.3825622327962L286.191461387294 418.3825622327962Q286.40238947603405 426.30743185260167 289.8073714799809 429.2302925108569Q293.18222089982197 432.1531531691121 299.5401961461297 432.1531531691121L299.5401961461297 432.1531531691121Q302.70411747723074 432.0326228326892 305.4160500467459 431.3395733982575Q308.1279826162611 430.64652396382587 310.0263354149217 428.8988340856939Q311.9246882135823 427.1511442075619 313.0395938254941 424.2584161334124Q314.1544994374059 421.3355554751572 314.1544994374059 416.87593302751003L314.1544994374059 416.87593302751003Q314.1544994374059 411.36167013616256 311.6836275407365 406.9321802726211Q309.18262305996143 402.472557824974 305.1448567897944 398.67585222765274Q301.1372231037331 394.8490140462258 295.92428605344287 391.41389945817326Q290.74148158725836 387.97878487012076 285.34774903233375 384.5135376979625Q279.95401647740914 381.07842310991 274.8013445953303 377.31185009669446Q269.67880529735726 373.54527708347894 265.5205086907674 369.11578721993754Q261.39234466828316 364.65616477229037 258.9214727716138 359.26243221736576Q256.4204682908387 353.8686996624412 256.33007053852157 346.9683379022304L256.33007053852157 346.9683379022304L256.33007053852157 345.28091319230987Q256.4204682908387 333.95106156855763 259.3433289490939 326.41791554212665Q262.2661896073492 318.88476951569567 267.9311154192253 314.4552796521542Q273.59604123110137 309.9956572045071 281.8523692760698 308.1575695740579Q290.1086973210381 306.28934935950303 300.80576467857014 306.28934935950303L300.80576467857014 306.28934935950303L303.5779624162967 306.28934935950303Q313.3107870824456 306.28934935950303 320.09061850623345 308.39863024690374Q326.8704499300214 310.5380437184101 331.36020496177423 313.822495385934Q335.8800925776328 317.10694705345793 338.4714948107251 321.23511107594214Q341.0628970438174 325.3632750984263 342.3284655762578 329.3709087844876Q343.6241666928039 333.4086750546546 343.92549253386113 336.9040548109186Q344.25695095902415 340.3994345671826 344.25695095902415 342.50871545458324L344.25695095902415 342.50871545458324Q344.25695095902415 345.70276936978996 343.0215150106894 348.2941716028823Q341.8162116464605 350.8855738359745 339.7370633431655 352.693528882318Q337.68804762397633 354.5014839286614 334.85558471803824 355.4958592041503Q332.05325439620594 356.4902344796392 328.768802728682 356.4902344796392L328.768802728682 356.4902344796392Q326.2376656638012 356.4902344796392 323.7065285989204 355.4958592041503Q321.1452589499338 354.5014839286614 319.12637581485035 352.90445697105804Q317.13762526387256 351.3074300134547 315.8419241473264 349.25841429426544Q314.576355614886 347.17926599097046 314.576355614886 345.06998510356976L314.576355614886 345.06998510356976Q314.576355614886 336.36166829701557 311.4726994519964 332.98681887717447Q308.3389107050011 329.58183687322764 302.28226129975064 329.58183687322764L302.28226129975064 329.58183687322764Q299.4196658097068 329.58183687322764 296.7378658242974 329.9132952983906Q294.0259332547822 330.2447537235536 291.976917535593 331.6609851765226Q289.89776923229806 333.07721662949166 288.6924658680691 336.06034245595833Q287.4570299197344 339.0133356983193 287.4570299197344 344.43720083734956ZM411.63340901942297 306.28934935950303L411.63340901942297 306.28934935950303Q423.2645864842324 306.28934935950303 431.70171003383507 308.94101676080675Q440.1087009993321 311.59268416211046 445.89415714763106 315.8112459369118Q451.64948071182437 320.0599402958189 455.1448604680884 325.42354026663776Q458.6402402243523 330.7570076533509 460.50846043890726 336.2712705446984Q462.37668065346213 341.78553343604585 462.9491997514709 346.8478075658075Q463.5217188494796 351.9402142796749 463.5217188494796 355.64652212467894L463.5217188494796 355.64652212467894Q463.5217188494796 357.24354908228224 463.2505255925281 359.5336254743173Q463.0094649196823 361.7935692822466 461.4124379620789 363.9028501696473Q459.81541100447555 366.0422636411537 456.380296416423 367.5187602623341Q452.94518182837044 368.9952568835146 446.5872065820627 368.9952568835146L446.5872065820627 368.9952568835146Q444.44779311055635 368.9952568835146 441.28387177945535 368.7240636265631Q438.0898178642485 368.48300295371735 435.1368246218876 367.36809734180554Q432.1838313795267 366.25319172989373 430.04441790802025 364.1740434265988Q427.93513702061955 362.1250277074096 427.93513702061955 358.4187198624055L427.93513702061955 358.4187198624055Q427.93513702061955 352.693528882318 427.24208758618795 348.1435086823536Q426.54903815175624 343.5633558982836 424.7410831054128 340.3994345671826Q422.96326064317515 337.2355132360816 419.76920672796837 335.5179559420553Q416.6052853968674 333.8305312321347 411.63340901942297 333.8305312321347L411.63340901942297 333.8305312321347Q406.4204719691327 333.8305312321347 403.6181416473003 336.0000772877469Q400.815811325468 338.169623343359 399.55024279302756 340.73089299234556L399.55024279302756 340.73089299234556Q398.0737461718471 343.8044165711294 397.8628180831071 347.6011221684506L397.8628180831071 347.6011221684506L397.8628180831071 414.7666521401094Q398.0737461718471 419.43720267649655 399.55024279302756 422.93258243276057L399.55024279302756 422.93258243276057Q400.815811325468 426.00610601154443 403.6181416473003 428.5372430764252Q406.4204719691327 431.068380141306 411.63340901942297 431.068380141306L411.63340901942297 431.068380141306Q416.6052853968674 431.068380141306 419.76920672796837 429.01936442211684Q422.96326064317515 426.9402161188218 424.7410831054128 423.44483636255785Q426.54903815175624 419.9494566062939 427.24208758618795 415.3994364063295Q427.93513702061955 410.8494162063652 427.93513702061955 405.87753982892076L427.93513702061955 405.87753982892076Q427.93513702061955 404.2805128713174 428.4775235345226 402.59308816139685Q428.9897774643199 400.87553086737057 430.88813026298055 399.4592994144016Q432.8166156457469 398.04306796143254 436.52292349075094 397.0788252700494Q440.229231335755 396.1145825786662 446.5872065820627 396.1145825786662L446.5872065820627 396.1145825786662Q452.94518182837044 396.1145825786662 456.380296416423 397.56094661574093Q459.81541100447555 398.97717806871 461.4124379620789 400.8453982832649Q463.0094649196823 402.68348591371404 463.2505255925281 404.43117579184604Q463.5217188494796 406.178865669978 463.5217188494796 406.72125218388106L463.5217188494796 406.72125218388106Q463.5217188494796 418.3825622327962 459.6044829157355 427.54286780093634Q455.6872469819914 436.7031733690764 448.5458245489348 443.0611486153841Q441.3742695317725 449.4191238616919 431.490781945095 452.73370811332154Q421.57716177431183 456.07842494905697 409.7049236366566 456.07842494905697L409.7049236366566 456.07842494905697Q407.806570837996 456.07842494905697 403.52774389498313 455.7770991079997Q399.2187843678646 455.4456406828367 393.91544956525723 454.0595418139734Q388.64224734675554 452.70357552921587 383.00745411898515 449.93137779148924Q377.40279347532044 447.18931263786834 372.7925081071447 442.2475688445296Q368.1822227389689 437.3359576352966 365.229229496608 429.95347452939427Q362.24610367014134 422.6011240075976 362.24610367014134 412.0245869864885L362.24610367014134 412.0245869864885L362.24610367014134 352.90445697105804Q362.24610367014134 344.2262727486095 364.3855171416477 337.5368390771388Q366.4947980290484 330.8775379897738 369.92991261710097 325.93579419643504Q373.36502720515347 321.02418298720204 377.82464965280064 317.6794661514667Q382.28427210044777 314.33474931573136 386.92469005272926 312.1049380919078L386.92469005272926 312.1049380919078Q397.74228774668416 307.04266396214615 411.63340901942297 306.28934935950303Z " fill="#FFFF" transform="matrix(0.6496866245448942,0,0,0.6496866245448942,0,52.281408178797136)"/><path d="M641.9116350222735 344.43720083734956L641.9116350222735 344.43720083734956Q642.0321653586964 348.866690700891 644.5030372553657 352.42233562536643Q647.0040417361408 355.9779805498419 651.0719405904135 359.1419018809429Q655.169972028792 362.3359557961496 660.3527764949765 365.349214206722Q665.535580961161 368.36247261729443 670.9895786842972 371.7071894530298Q676.4435764074332 375.05190628876517 681.6565134577233 378.9691422225093Q686.8393179239079 382.8863781562534 690.9674819463921 387.85825453369785Q695.0956459688763 392.8301309111423 697.6267830337571 399.0977084051329Q700.1880526827437 405.33515331501775 700.3989807714837 413.2901555189289L700.3989807714837 413.2901555189289L700.3989807714837 414.13386787388913Q700.3989807714837 422.81205209633765 698.2896998840831 429.29055767906834Q696.1502864125766 435.73893067769325 692.6549066563126 440.4094812140804Q689.1595269000487 445.0498991663619 684.5191089477671 448.09329016104004Q679.8485584113799 451.1065485716125 674.6958865293011 452.9145036179559Q669.5733472313282 454.69232608019365 664.3302775969321 455.4456406828367Q659.0872079625361 456.1989552854798 654.416657426149 456.289353037797L654.416657426149 456.289353037797L653.3620169824486 456.289353037797Q644.3523743348371 456.289353037797 637.5725429110493 454.48139799145355Q630.7927114872614 452.70357552921587 625.911232862134 449.66018453453773Q621.0598868211125 446.64692612396533 617.8055677376942 442.72969019022116Q614.5813812383818 438.8124542564771 612.6830284397213 434.62402506578144Q610.7846756410606 430.4355958750858 609.9409632861003 426.30743185260167Q609.0671183470344 422.17926783011745 609.0671183470344 418.59349032153625L609.0671183470344 418.59349032153625Q609.0671183470344 414.88718247653225 610.3628194635805 412.1149847388057Q611.6283879960208 409.3729195851848 613.6774037152102 407.62522970705277Q615.7565520185051 405.87753982892076 618.4684845880201 405.0338274739605Q621.1502845734296 404.15998253489454 624.1334103998963 404.15998253489454L624.1334103998963 404.15998253489454Q626.8754755535172 404.15998253489454 629.7983362117725 405.0338274739605Q632.6910642859219 405.87753982892076 635.0715384302741 407.62522970705277Q637.482145158732 409.3729195851848 639.0189069481239 412.0547195705942Q640.5556687375159 414.7666521401094 640.6460664898331 418.3825622327962L640.6460664898331 418.3825622327962Q640.8569945785732 426.30743185260167 644.26197658252 429.2302925108569Q647.636826002361 432.1531531691121 653.9948012486689 432.1531531691121L653.9948012486689 432.1531531691121Q657.1587225797698 432.0326228326892 659.870655149285 431.3395733982575Q662.5825877188001 430.64652396382587 664.4809405174608 428.8988340856939Q666.3792933161213 427.1511442075619 667.4941989280331 424.2584161334124Q668.609104539945 421.3355554751572 668.609104539945 416.87593302751003L668.609104539945 416.87593302751003Q668.609104539945 411.36167013616256 666.1382326432756 406.9321802726211Q663.6372281625005 402.472557824974 659.5994618923335 398.67585222765274Q655.5918282062721 394.8490140462258 650.3788911559819 391.41389945817326Q645.1960866897974 387.97878487012076 639.8023541348728 384.5135376979625Q634.4086215799482 381.07842310991 629.2559496978695 377.31185009669446Q624.1334103998963 373.54527708347894 619.9751137933065 369.11578721993754Q615.8469497708222 364.65616477229037 613.3760778741529 359.26243221736576Q610.8750733933778 353.8686996624412 610.7846756410606 346.9683379022304L610.7846756410606 346.9683379022304L610.7846756410606 345.28091319230987Q610.8750733933778 333.95106156855763 613.7979340516331 326.41791554212665Q616.7207947098882 318.88476951569567 622.3857205217644 314.4552796521542Q628.0506463336404 309.9956572045071 636.3069743786089 308.1575695740579Q644.5633024235772 306.28934935950303 655.2603697811091 306.28934935950303L655.2603697811091 306.28934935950303L658.0325675188358 306.28934935950303Q667.7653921849846 306.28934935950303 674.5452236087725 308.39863024690374Q681.3250550325604 310.5380437184101 685.8148100643133 313.822495385934Q690.3346976801719 317.10694705345793 692.9260999132641 321.23511107594214Q695.5175021463565 325.3632750984263 696.7830706787968 329.3709087844876Q698.078771795343 333.4086750546546 698.3800976364003 336.9040548109186Q698.7115560615632 340.3994345671826 698.7115560615632 342.50871545458324L698.7115560615632 342.50871545458324Q698.7115560615632 345.70276936978996 697.4761201132285 348.2941716028823Q696.2708167489996 350.8855738359745 694.1916684457046 352.693528882318Q692.1426527265153 354.5014839286614 689.3101898205773 355.4958592041503Q686.5078594987449 356.4902344796392 683.223407831221 356.4902344796392L683.223407831221 356.4902344796392Q680.6922707663402 356.4902344796392 678.1611337014594 355.4958592041503Q675.5998640524729 354.5014839286614 673.5809809173894 352.90445697105804Q671.5922303664116 351.3074300134547 670.2965292498654 349.25841429426544Q669.030960717425 347.17926599097046 669.030960717425 345.06998510356976L669.030960717425 345.06998510356976Q669.030960717425 336.36166829701557 665.9273045545356 332.98681887717447Q662.7935158075402 329.58183687322764 656.7368664022897 329.58183687322764L656.7368664022897 329.58183687322764Q653.874270912246 329.58183687322764 651.1924709268364 329.9132952983906Q648.4805383573213 330.2447537235536 646.431522638132 331.6609851765226Q644.3523743348371 333.07721662949166 643.1470709706082 336.06034245595833Q641.9116350222735 339.0133356983193 641.9116350222735 344.43720083734956ZM722.636827841508 431.068380141306L722.636827841508 331.51032225599397Q722.636827841508 326.9603020560297 723.0586840189882 322.5910773606997Q723.4805401964683 318.25198524947547 725.1378323222831 314.8168706614229Q726.7649918639922 311.3817560733704 729.959045779199 309.242342601864Q733.1229671102999 307.13306171446334 738.7577603380703 307.13306171446334L738.7577603380703 307.13306171446334Q744.2418906453121 307.13306171446334 747.4962097287303 309.242342601864Q750.7203962280428 311.3817560733704 752.3475557697518 314.8168706614229Q754.0048478955666 318.25198524947547 754.4267040730468 322.5910773606997Q754.8485602505269 326.9603020560297 754.8485602505269 331.51032225599397L754.8485602505269 331.51032225599397L754.8485602505269 364.7766951087133L783.8662387443392 364.7766951087133L783.8662387443392 331.51032225599397Q783.8662387443392 326.9603020560297 784.2880949218193 322.5910773606997Q784.7099510992994 318.25198524947547 786.3672432251142 314.8168706614229Q787.9944027668233 311.3817560733704 791.18845668203 309.242342601864Q794.3523780131311 307.13306171446334 799.9871712409015 307.13306171446334L799.9871712409015 307.13306171446334Q805.4713015481432 307.13306171446334 808.7256206315615 309.242342601864Q811.9498071308739 311.3817560733704 813.576966672583 314.8168706614229Q815.2342587983978 318.25198524947547 815.6561149758779 322.5910773606997Q816.077971153358 326.9603020560297 816.077971153358 331.51032225599397L816.077971153358 331.51032225599397L816.077971153358 431.068380141306Q816.077971153358 435.73893067769325 815.6561149758779 440.07802278891745Q815.2342587983978 444.41711490014177 813.576966672583 447.8823620723Q811.9498071308739 451.31747666035255 808.7256206315615 453.3664923795418Q805.4713015481432 455.4456406828367 799.9871712409015 455.4456406828367L799.9871712409015 455.4456406828367Q794.3523780131311 455.4456406828367 791.18845668203 453.3664923795418Q787.9944027668233 451.31747666035255 786.3672432251142 447.8823620723Q784.7099510992994 444.41711490014177 784.2880949218193 440.07802278891745Q783.8662387443392 435.73893067769325 783.8662387443392 431.068380141306L783.8662387443392 431.068380141306L783.8662387443392 395.9036544899261L754.8485602505269 395.9036544899261L754.8485602505269 431.068380141306Q754.8485602505269 435.73893067769325 754.4267040730468 440.07802278891745Q754.0048478955666 444.41711490014177 752.3475557697518 447.8823620723Q750.7203962280428 451.31747666035255 747.4962097287303 453.3664923795418Q744.2418906453121 455.4456406828367 738.7577603380703 455.4456406828367L738.7577603380703 455.4456406828367Q733.1229671102999 455.4456406828367 729.959045779199 453.3664923795418Q726.7649918639922 451.31747666035255 725.1378323222831 447.8823620723Q723.4805401964683 444.41711490014177 723.0586840189882 440.07802278891745Q722.636827841508 435.73893067769325 722.636827841508 431.068380141306L722.636827841508 431.068380141306ZM888.1249797501441 334.674243587095L872.4259034310619 391.4741646263847L906.1141324612613 391.4741646263847L890.4451887262849 334.674243587095L888.1249797501441 334.674243587095ZM916.9317301552162 327.05069980834685L938.9586491365004 401.8397735587538Q939.1695772252406 409.0414611600218 939.5010356504035 416.5746071864528Q939.8023614914607 424.07762062877805 939.8023614914607 431.068380141306L939.8023614914607 431.068380141306L939.8023614914607 434.26243405651275Q939.8023614914607 438.27006774257404 939.5311682345092 442.03664075578956Q939.2901075616635 445.8032137690051 937.9040086928001 448.81647217957743Q936.5179098239369 451.82973059014984 933.5649165815759 453.6376856364933Q930.5817907551092 455.4456406828367 925.1880582001845 455.4456406828367L925.1880582001845 455.4456406828367Q919.673795308837 455.4456406828367 916.7208020664762 453.6376856364933Q913.7376762400095 451.82973059014984 912.3214447870405 448.8767373477889Q910.8750807499657 445.923744105428 910.6340200771199 442.096905924001Q910.3628268201685 438.27006774257404 910.3628268201685 434.26243405651275L910.3628268201685 434.26243405651275L910.3628268201685 419.43720267649655L867.9964135675204 419.43720267649655L867.9964135675204 434.26243405651275Q867.9964135675204 438.27006774257404 867.7252203105691 442.096905924001Q867.4540270536174 445.923744105428 866.0377956006485 448.8767373477889Q864.5914315635737 451.82973059014984 861.6384383212127 453.6376856364933Q858.6553124947461 455.4456406828367 853.1410496033985 455.4456406828367L853.1410496033985 455.4456406828367Q847.6569192961567 455.4456406828367 844.6737934696902 453.6376856364933Q841.7208002273292 451.82973059014984 840.3347013584658 448.81647217957743Q838.9486024896025 445.8032137690051 838.7376744008625 442.03664075578956Q838.5267463121224 438.27006774257404 838.5267463121224 434.26243405651275L838.5267463121224 434.26243405651275L838.5267463121224 431.068380141306Q838.5267463121224 427.7839284737821 838.5870114803339 424.07762062877805Q838.6472766485454 420.371312783774 838.7376744008625 416.5746071864528Q838.8582047372854 412.7477690050258 838.9486024896025 408.98119599181035Q839.0691328260255 405.24475556270056 839.1595305783426 401.8397735587538L839.1595305783426 401.8397735587538Q844.46286538095 383.3986320860507 850.2784541133548 364.5055018517618Q856.1241754298652 345.5822390333671 861.4275102324726 327.05069980834685L861.4275102324726 327.05069980834685Q862.482150676173 323.13346387460274 863.9586472973535 319.48742119781014Q865.435143918534 315.8112459369118 867.8758832310975 313.12944595150236Q870.3166225436612 310.4175133819872 874.1133281409825 308.79035384027816Q877.9401663224094 307.13306171446334 883.8762853912369 307.13306171446334L883.8762853912369 307.13306171446334L894.4528224123461 307.13306171446334Q900.2985437288565 307.13306171446334 904.1555144943893 308.79035384027816Q908.012485259922 310.4175133819872 910.4532245724856 313.12944595150236Q912.8939638850492 315.8112459369118 914.340327922124 319.48742119781014Q915.756559375093 323.13346387460274 916.9317301552162 327.05069980834685L916.9317301552162 327.05069980834685ZM1032.8216486258307 421.1246273864171L1030.71236773843 421.1246273864171Q1027.6388441596462 421.1246273864171 1025.469298104034 419.9494566062939Q1023.2696194643162 418.8044184102764 1021.7027250908185 416.99646336393295Q1020.1056981332151 415.1885083175895 1018.9907925213033 412.9586970937659Q1017.8758869093915 410.7288858699423 1017.1527048908542 408.61960498254166L1017.1527048908542 408.61960498254166L997.0241387082306 350.5842479949173L994.2519409705039 350.5842479949173L994.2519409705039 438.93298459289997Q994.2519409705039 442.30783401274107 993.8300847930238 445.260827255102Q993.4082286155436 448.2439530815687 991.9919971625746 450.5340294736037Q990.5456331255 452.793973281533 987.7433028036676 454.11980698218485Q984.9409724818352 455.4456406828367 980.059493856708 455.4456406828367L980.059493856708 455.4456406828367Q974.5452309653605 455.4456406828367 971.3813096342594 454.11980698218485Q968.1872557190527 452.793973281533 966.620361345555 450.5340294736037Q965.0233343879518 448.2439530815687 964.6014782104716 445.260827255102Q964.1796220329915 442.30783401274107 964.1796220329915 438.93298459289997L964.1796220329915 438.93298459289997L964.1796220329915 331.2993941672539Q964.1796220329915 326.7493739672896 964.450815289943 322.3801492719597Q964.6918759627888 318.04105716073536 966.1985051680749 314.6662077408943Q967.6750017892554 311.2612257369475 970.8991882885679 309.21221001775825Q974.1233747878803 307.13306171446334 980.059493856708 307.13306171446334L980.059493856708 307.13306171446334L994.462869059244 307.13306171446334Q998.0787791519308 307.13306171446334 1000.5496510486003 307.40425497141484Q1003.0506555293754 307.67544822836635 1005.159936416776 309.21221001775825Q1007.2993498882824 310.74897180715016 1009.3483656074717 314.12382122699125Q1011.4275139107666 317.5288032309381 1013.898385807436 323.7059829726115Q1016.3993902882111 329.9132952983906 1019.683841955735 339.4954570440109Q1022.9682936232589 349.07761878963106 1027.7292419119633 363.059137814687L1027.7292419119633 363.059137814687L1030.50143964969 371.55652653250115L1033.0325767145707 371.55652653250115L1036.4074261344117 360.9498569272863Q1040.7766508297418 347.6011221684506 1043.8501744085256 338.3805514320991Q1046.8935654032039 329.15998069574755 1049.2439069634502 323.1937290428142Q1051.564115939591 317.1973448057751 1053.4323361541458 313.97315830646266Q1055.270423784595 310.74897180715016 1057.34957208789 309.21221001775825Q1059.3985878070791 307.67544822836635 1061.8393271196428 307.40425497141484Q1064.2800664322065 307.13306171446334 1067.7754461884704 307.13306171446334L1067.7754461884704 307.13306171446334L1083.2334618347068 307.13306171446334Q1089.1695809035346 307.13306171446334 1092.393767402847 309.21221001775825Q1095.6480864862651 311.2612257369475 1097.1245831074457 314.6662077408943Q1098.6010797286262 318.04105716073536 1098.8722729855776 322.3801492719597Q1099.143466242529 326.7493739672896 1099.143466242529 331.2993941672539L1099.143466242529 331.2993941672539L1099.143466242529 438.93298459289997Q1099.143466242529 442.30783401274107 1098.721610065049 445.260827255102Q1098.2997538875688 448.2439530815687 1096.7027269299654 450.5340294736037Q1095.1056999723621 452.793973281533 1091.9417786412612 454.11980698218485Q1088.7477247260545 455.4456406828367 1083.2334618347068 455.4456406828367L1083.2334618347068 455.4456406828367Q1078.3821157936852 455.4456406828367 1075.5496528877472 454.11980698218485Q1072.7473225659148 452.793973281533 1071.3310911129458 450.5340294736037Q1069.884727075871 448.2439530815687 1069.462870898391 445.260827255102Q1069.0410147209109 442.30783401274107 1069.0410147209109 438.93298459289997L1069.0410147209109 438.93298459289997L1069.0410147209109 350.5842479949173L1066.0880214785498 350.5842479949173L1046.1703833846664 408.61960498254166Q1045.3266710297062 410.7288858699423 1044.2720305860057 412.9586970937659Q1043.1872575581997 415.1885083175895 1041.620363184702 416.99646336393295Q1040.0233362270988 418.8044184102764 1037.9140553396978 419.9494566062939Q1035.7746418681916 421.1246273864171 1032.8216486258307 421.1246273864171L1032.8216486258307 421.1246273864171ZM1145.3065850924982 307.13306171446334L1176.0418208803367 307.13306171446334Q1185.4733197054284 307.13306171446334 1193.789912918608 309.57380102702695Q1202.106506131788 312.01454033959055 1208.313818457567 316.8960189647179Q1214.4909981992405 321.7473650057394 1218.046643123716 329.0093177752189Q1221.6022880481914 336.2712705446984 1221.6022880481914 345.91369745853007L1221.6022880481914 345.91369745853007Q1221.6022880481914 350.8855738359745 1220.2764543475396 354.9534726902473Q1218.9506206468877 359.0515041286257 1216.8714723435928 362.3359557961496Q1214.8224566244035 365.62040746367353 1212.3214521436284 368.0611467762372Q1209.8204476628534 370.47175350469513 1207.5002386867125 372.2194433828271Q1205.180029710572 373.9671332609591 1203.3720746642284 374.9916411205537Q1201.564119617885 375.9860163960426 1200.8409375993474 376.19694448478265L1200.8409375993474 376.19694448478265Q1207.1989128456553 378.0048995311261 1211.5380049568796 380.8072298529584Q1215.877097068104 383.6095601747908 1218.799957726359 386.95427701052614Q1221.6926858005086 390.2989938462615 1223.3499779263234 393.8546387707369Q1224.9771374680327 397.3801511111066 1225.7907172388868 400.724867946842Q1226.574164425636 404.06958478257735 1226.7248273461644 406.87191510440965Q1226.9056228507989 409.674245426242 1226.9056228507989 411.36167013616256L1226.9056228507989 411.36167013616256Q1226.9056228507989 419.64813076523666 1224.8867397157153 425.9458408433329Q1222.8678565806317 432.24355092142923 1219.5834049131079 436.85383628960506Q1216.298953245584 441.46412165778077 1212.0502588866766 444.6883081570933Q1207.8316971118757 447.9124946564057 1203.4926050006513 449.93137779148924L1203.4926050006513 449.93137779148924Q1193.0968634841765 454.8128564166165 1180.0795871505038 455.4456406828367L1180.0795871505038 455.4456406828367L1145.3065850924982 455.4456406828367Q1139.2800682713535 455.4456406828367 1135.9956166038296 453.3664923795418Q1132.7111649363055 451.31747666035255 1131.2346683151252 447.8823620723Q1129.7581716939446 444.41711490014177 1129.4869784369932 440.07802278891745Q1129.2157851800416 435.73893067769325 1129.2157851800416 431.068380141306L1129.2157851800416 431.068380141306L1129.2157851800416 331.2993941672539Q1129.2157851800416 326.7493739672896 1129.4869784369932 322.3801492719597Q1129.7581716939446 318.04105716073536 1131.2346683151252 314.6662077408943Q1132.7111649363055 311.2612257369475 1135.9956166038296 309.21221001775825Q1139.2800682713535 307.13306171446334 1145.3065850924982 307.13306171446334L1145.3065850924982 307.13306171446334ZM1176.0418208803367 390.6003196873187L1161.4275175890607 390.6003196873187L1161.4275175890607 430.4355958750858L1176.8855332352969 430.4355958750858Q1181.8574096127413 430.2246677863458 1185.7746455464855 428.1153868989451L1185.7746455464855 428.1153868989451Q1187.4922028405117 427.2716745439848 1189.0590972140094 425.8855756751215Q1190.6561241716129 424.4994768062582 1191.9216927040534 422.45046108706896Q1193.2173938205992 420.371312783774 1193.9405758391367 417.6895127983646Q1194.6938904417798 414.97758022884943 1194.6938904417798 411.36167013616256L1194.6938904417798 411.36167013616256Q1194.6938904417798 407.4444342024184 1193.8803106709252 404.5517061282689Q1193.0968634841765 401.6288454700137 1191.7710297835247 399.4592994144016Q1190.4451960828728 397.2897533587894 1188.7577713729522 395.7529915693975Q1187.0703466630316 394.2162297800056 1185.3527893690054 393.2519870886224L1185.3527893690054 393.2519870886224Q1181.2246253465214 391.02217586479884 1176.0418208803367 390.6003196873187L1176.0418208803367 390.6003196873187ZM1174.143468081676 332.1431065222142L1161.4275175890607 332.1431065222142L1161.4275175890607 368.1515445285544L1174.9871804366364 368.1515445285544Q1179.5372006366006 367.9406164398143 1183.1531107292876 366.0422636411537L1183.1531107292876 366.0422636411537Q1184.629607350468 365.28894903851057 1186.1061039716485 364.02338050607017Q1187.582600592829 362.75781197362977 1188.7577713729522 361.01012209549776Q1189.9329421530756 359.26243221736576 1190.5958590034015 356.82169290480215Q1191.288908437833 354.3809535922385 1191.288908437833 351.2170322611375L1191.288908437833 351.2170322611375Q1191.288908437833 347.6011221684506 1190.5657264192955 344.88918959893545Q1189.8124118166525 342.207389613526 1188.6071084524235 340.24877164665395Q1187.371672504089 338.2901536797819 1185.834910714697 336.9040548109186Q1184.2981489253052 335.5179559420553 1182.7011219677017 334.5838458347779L1182.7011219677017 334.5838458347779Q1178.9044163703804 332.5649626996943 1174.143468081676 332.1431065222142L1174.143468081676 332.1431065222142ZM1248.5106856546029 412.0245869864885L1248.5106856546029 331.2993941672539Q1248.5106856546029 326.7493739672896 1248.9928070002943 322.3801492719597Q1249.4447957618804 318.04105716073536 1251.1924856400124 314.6662077408943Q1252.9401755181443 311.2612257369475 1256.4355552744082 309.21221001775825Q1259.9309350306721 307.13306171446334 1266.07798218824 307.13306171446334L1266.07798218824 307.13306171446334Q1272.2250293458076 307.13306171446334 1275.780674270283 309.21221001775825Q1279.3363191947585 311.2612257369475 1281.0840090728907 314.6662077408943Q1282.8316989510226 318.04105716073536 1283.2535551285027 322.3801492719597Q1283.6754113059828 326.7493739672896 1283.6754113059828 331.2993941672539L1283.6754113059828 331.2993941672539L1283.6754113059828 414.7666521401094Q1283.9767371470398 419.43720267649655 1285.5737641046435 423.0229801850777L1285.5737641046435 423.0229801850777Q1286.2065483708636 424.62000714268106 1287.2611888145639 426.09650376386156Q1288.34596184237 427.57300038504206 1289.7621932953389 428.7481711651653Q1291.1784247483079 429.9233419452885 1293.1671752992859 430.6163913797202Q1295.1257932661579 431.2793082300461 1297.6569303310387 431.2793082300461L1297.6569303310387 431.2793082300461Q1300.1880673959195 431.2793082300461 1302.2069505310028 430.6163913797202Q1304.2258336660864 429.9233419452885 1305.6420651190556 428.7481711651653Q1307.0884291561304 427.57300038504206 1308.1430695998306 426.09650376386156Q1309.197710043531 424.62000714268106 1309.8304943097512 423.0229801850777L1309.8304943097512 423.0229801850777Q1311.4275212673545 419.43720267649655 1311.6384493560945 414.7666521401094L1311.6384493560945 414.7666521401094L1311.6384493560945 331.2993941672539Q1311.6384493560945 326.7493739672896 1312.0603055335746 322.3801492719597Q1312.482161711055 318.04105716073536 1314.2298515891869 314.6662077408943Q1315.9775414673188 311.2612257369475 1319.472921223583 309.21221001775825Q1322.9683009798468 307.13306171446334 1329.2358784738376 307.13306171446334L1329.2358784738376 307.13306171446334Q1335.3829256314052 307.13306171446334 1338.8783053876691 309.21221001775825Q1342.373685143933 311.2612257369475 1344.121375022065 314.6662077408943Q1345.869064900197 318.04105716073536 1346.3210536617828 322.3801492719597Q1346.8031750074745 326.7493739672896 1346.8031750074745 331.2993941672539L1346.8031750074745 331.2993941672539L1346.8031750074745 412.0245869864885Q1346.8031750074745 423.0229801850777 1343.2475300829992 431.2793082300461Q1339.7220177426293 439.5657688591202 1333.1832469916872 445.11016433457337Q1326.674608824851 450.6846923941323 1317.6348335931339 453.48702271596466Q1308.5649257773107 456.289353037797 1297.6569303310387 456.289353037797L1297.6569303310387 456.289353037797Q1286.6284045483435 456.289353037797 1277.6187619007324 453.3664923795418Q1268.6392518372263 450.47376430539225 1262.1004810862844 444.83897107762186Q1255.591842919448 439.23431043395726 1252.0361979949726 430.97798238898883Q1248.5106856546029 422.72165434402046 1248.5106856546029 412.0245869864885L1248.5106856546029 412.0245869864885Z " fill="#FFFF" transform="matrix(0.6496866245448942,0,0,0.6496866245448942,0,52.281408178797136)"/></g></svg>